<svg
  width="120"
  height="120"
  viewBox="14 0 120 120"
  role="img"
  aria-labelledby="book-logo-title"
  xmlns="http://www.w3.org/2000/svg"
>
  <title id="book-logo-title">AstraLib book mark</title>
  <defs>
    <linearGradient id="markGradient" x1="32" y1="18" x2="116" y2="96" gradientUnits="userSpaceOnUse">
      <stop offset="0" stop-color="#18c6df" />
      <stop offset="0.5" stop-color="#3478ee" />
      <stop offset="1" stop-color="#6847f5" />
    </linearGradient>
    <linearGradient id="bookGradient" x1="28" y1="73" x2="122" y2="94" gradientUnits="userSpaceOnUse">
      <stop offset="0" stop-color="#3297f4" />
      <stop offset="1" stop-color="#6b49f4" />
    </linearGradient>
    <linearGradient id="starGradient" x1="59" y1="24" x2="91" y2="86" gradientUnits="userSpaceOnUse">
      <stop offset="0" stop-color="#14b8d7" />
      <stop offset="0.52" stop-color="#3175ef" />
      <stop offset="1" stop-color="#6648f4" />
    </linearGradient>
  </defs>

  <g fill="none" stroke-linecap="round" stroke-linejoin="round">
    <path
      d="M35 59C37 35 53 19 70 17C92 13.8 113 30 115 59"
      stroke="url(#markGradient)"
      stroke-width="2.2"
      stroke-dasharray="5 7.4"
    />

    <path
      d="M31 79C46 78 62 82 75 95C88 82 104 78 119 79"
      stroke="url(#bookGradient)"
      stroke-width="5.5"
    />
    <path
      d="M29 88C47 87 62 91 75 101C88 91 104 87 121 88"
      stroke="url(#bookGradient)"
      stroke-width="5.5"
    />
    <path d="M75 95V101" stroke="#5f55ee" stroke-width="4" />
  </g>

  <path
    d="M75 28L84 51L108 59L84 66L75 90L66 66L42 59L66 51L75 28Z"
    fill="url(#starGradient)"
  />

  <circle cx="75" cy="16" r="7" fill="#14b8d7" />
  <circle cx="34" cy="59" r="7" fill="#3478ee" />
  <circle cx="116" cy="59" r="7" fill="#6047f4" />
</svg>
