<svg
  width="370"
  height="120"
  viewBox="0 0 370 120"
  role="img"
  aria-labelledby="astralib-logo-title"
  xmlns="http://www.w3.org/2000/svg"
>
  <title id="astralib-logo-title">AstraLib - Intelligent paper explorer</title>
  <style>
    .wordmark {
      fill: #13213a;
    }

    .tagline {
      fill: #667085;
    }

    @media (prefers-color-scheme: dark) {
      .wordmark {
        fill: #e2e8f0;
      }

      .tagline {
        fill: #94a3b8;
      }
    }
  </style>
  <defs>
    <linearGradient id="markGradient" x1="32" y1="18" x2="116" y2="96" gradientUnits="userSpaceOnUse">
      <stop offset="0" stop-color="#18c6df" />
      <stop offset="0.5" stop-color="#3478ee" />
      <stop offset="1" stop-color="#6847f5" />
    </linearGradient>
    <linearGradient id="bookGradient" x1="28" y1="73" x2="122" y2="94" gradientUnits="userSpaceOnUse">
      <stop offset="0" stop-color="#3297f4" />
      <stop offset="1" stop-color="#6b49f4" />
    </linearGradient>
    <linearGradient id="starGradient" x1="59" y1="24" x2="91" y2="86" gradientUnits="userSpaceOnUse">
      <stop offset="0" stop-color="#14b8d7" />
      <stop offset="0.52" stop-color="#3175ef" />
      <stop offset="1" stop-color="#6648f4" />
    </linearGradient>
  </defs>

  <g fill="none" stroke-linecap="round" stroke-linejoin="round">
    <path
      d="M35 59C38 35 53 19 72 16C93 13 112 31 116 59"
      stroke="url(#markGradient)"
      stroke-width="2.2"
      stroke-dasharray="5 8"
    />

    <path
      d="M31 79C46 78 62 82 75 95C88 82 104 78 119 79"
      stroke="url(#bookGradient)"
      stroke-width="5.5"
    />
    <path
      d="M29 88C47 87 62 91 75 101C88 91 104 87 121 88"
      stroke="url(#bookGradient)"
      stroke-width="5.5"
    />
    <path d="M75 95V101" stroke="#5f55ee" stroke-width="4" />
  </g>

  <path
    d="M75 28L84 51L108 59L84 66L75 90L66 66L42 59L66 51L75 28Z"
    fill="url(#starGradient)"
  />

  <circle cx="75" cy="16" r="7" fill="#14b8d7" />
  <circle cx="31" cy="59" r="7" fill="#3478ee" />
  <circle cx="119" cy="59" r="7" fill="#6047f4" />

  <g font-family="Inter, 'Segoe UI', Arial, sans-serif">
    <text
      class="wordmark"
      x="150"
      y="62"
      font-size="48"
      font-weight="750"
      letter-spacing="-1.2"
    >
      AstraLib
    </text>
    <text class="tagline" x="152" y="88" font-size="18" font-weight="500" letter-spacing="0">
      Intelligent paper explorer
    </text>
  </g>
</svg>
